<?xml version="1.0" encoding="iso-8859-1"?>
<!-- Uploaded to: SVG Repo, www.svgrepo.com, Generator: SVG Repo Mixer Tools -->
<svg fill="#000000" height="800px" width="800px" version="1.1" id="Layer_1" xmlns="http://www.w3.org/2000/svg" xmlns:xlink="http://www.w3.org/1999/xlink" 
	 viewBox="0 0 512.001 512.001" xml:space="preserve">
<g>
	<g>
		<g>
			<path d="M128.744,201.437c-47.809,0-86.705,38.897-86.705,86.705s38.897,86.705,86.705,86.705
				c47.809,0,86.705-38.897,86.705-86.705S176.553,201.437,128.744,201.437z M128.744,353.828c-36.22,0-65.686-29.466-65.686-65.686
				c0-36.22,29.466-65.686,65.686-65.686s65.686,29.466,65.686,65.686C194.43,324.362,164.964,353.828,128.744,353.828z"/>
			<path d="M411.456,311.789c-17.385,0-31.529,14.144-31.529,31.529c0,17.385,14.144,31.529,31.529,31.529
				c17.385,0,31.529-14.144,31.529-31.529C442.986,325.933,428.842,311.789,411.456,311.789z M411.456,353.828
				c-5.795,0-10.51-4.715-10.51-10.51c0-5.795,4.715-10.51,10.51-10.51c5.795,0,10.51,4.715,10.51,10.51
				C421.966,349.113,417.252,353.828,411.456,353.828z"/>
			<path d="M273.779,395.867h-1.752c-5.803,0-10.51,4.706-10.51,10.51c0,5.804,4.706,10.51,10.51,10.51h1.752
				c5.804,0,10.51-4.706,10.51-10.51C284.289,400.573,279.582,395.867,273.779,395.867z"/>
			<path d="M501.49,189.657h-86.531v-68.602l8.83-7.358c4.458-3.716,5.06-10.344,1.345-14.802
				c-3.717-4.459-10.342-5.063-14.803-1.346l-12.612,10.51c-2.395,1.997-3.781,4.955-3.781,8.075v73.525h-23.121v-20.1
				c0-5.804-4.706-10.51-10.51-10.51s-10.51,4.706-10.51,10.51v20.1h-44.811l-13.312-25.209l7.28-4.154
				c5.042-2.877,6.797-9.296,3.919-14.337c-2.875-5.043-9.298-6.797-14.337-3.919l-32.23,18.392
				c-5.042,2.877-6.797,9.296-3.919,14.337c1.939,3.398,5.487,5.303,9.137,5.303c1.767,0,3.557-0.446,5.199-1.383l6.684-3.814
				l14.733,27.9v66.978h-31.973c-3.667-25.522-14.845-48.646-31.218-67.06v-39.614c0-2.549-0.926-5.01-2.605-6.926l-33.149-37.835
				c-1.995-2.277-4.876-3.584-7.904-3.584H38.886c-5.803,0-10.51,4.706-10.51,10.51v82.37C10.635,229.68,0,257.692,0,288.144
				c0,70.99,57.754,128.744,128.744,128.744c1.217,0,98.091-0.055,98.091-0.055c5.803,0,10.51-4.706,10.51-10.51
				c0-5.804-4.706-10.51-10.51-10.51h-27.59c22.433-14.738,40.004-36.289,49.75-61.69h89.489c-0.378,3.015-0.595,6.08-0.595,9.196
				c0,40.565,33.003,73.568,73.568,73.568s73.568-33.003,73.568-73.568c0-3.116-0.218-6.181-0.595-9.196h17.06
				c5.803,0,10.51-4.706,10.51-10.51V200.167C512,194.363,507.294,189.657,501.49,189.657z M49.396,135.751h127.132l27.404,31.278
				v16.671c-21.169-15.282-47.143-24.302-75.188-24.302c-29.909,0-57.467,10.252-79.349,27.426V135.751z M128.744,395.867
				c-59.4,0-107.725-48.325-107.725-107.725s48.325-107.725,107.725-107.725c59.4,0,107.725,48.326,107.725,107.725
				S188.144,395.867,128.744,395.867z M255.052,313.103c1.429-7.246,2.25-14.708,2.404-22.333H360.04
				c-6.508,6.369-11.833,13.933-15.633,22.333H255.052z M411.456,395.867c-28.975,0-52.549-23.573-52.549-52.549
				c0-28.975,23.573-52.549,52.549-52.549c28.975,0,52.549,23.573,52.549,52.549C464.005,372.293,440.432,395.867,411.456,395.867z
				 M490.981,313.103h-12.474c-9.647-21.322-29.156-37.258-52.686-41.935c-2.13-0.498-10.51-1.418-10.51-1.418H309.162v-59.073
				h181.819V313.103z"/>
		</g>
	</g>
</g>
</svg>