<?xml version="1.0" encoding="iso-8859-1"?>
<!-- Uploaded to: SVG Repo, www.svgrepo.com, Generator: SVG Repo Mixer Tools -->
<svg fill="#000000" height="800px" width="800px" version="1.1" id="Layer_1" xmlns="http://www.w3.org/2000/svg" xmlns:xlink="http://www.w3.org/1999/xlink" 
	 viewBox="0 0 480.007 480.007" xml:space="preserve">
<g>
	<g>
		<g>
			<path d="M112.004,264.004c4.424,0,8-3.576,8-8v-40c0-4.424-3.576-8-8-8s-8,3.576-8,8v40
				C104.004,260.428,107.58,264.004,112.004,264.004z"/>
			<path d="M144.004,264.004c4.424,0,8-3.576,8-8v-40c0-4.424-3.576-8-8-8s-8,3.576-8,8v40
				C136.004,260.428,139.58,264.004,144.004,264.004z"/>
			<path d="M176.004,264.004c4.424,0,8-3.576,8-8v-40c0-4.424-3.576-8-8-8s-8,3.576-8,8v40
				C168.004,260.428,171.58,264.004,176.004,264.004z"/>
			<path d="M479.436,349.036l-16-40c-1-2.496-3.184-4.328-5.824-4.864c-2.68-0.536-5.368,0.272-7.264,2.176l-13.656,13.656h-46.16
				c0.896-2.512,1.472-5.184,1.472-8v-9.472c9.288-3.312,16-12.112,16-22.528v-88c0-13.232-10.768-24-24-24h-8v-16
				c0-7.064-3.128-13.36-8-17.76v-62.24c0-30.872-25.128-56-56-56h-1.472c-3.312-9.288-12.112-16-22.528-16h-96
				c-10.416,0-19.216,6.712-22.528,16h-1.472c-30.872,0-56,25.128-56,56v55.568l-45.472-15.16c-3.424-1.16-7.184,0.144-9.184,3.152
				l-16,24c-2.12,3.168-1.696,7.4,1,10.096l32,32c0.024,0.024,0.048,0.024,0.072,0.048c-1.504,3.128-2.416,6.6-2.416,10.296v88
				c0,10.416,6.712,19.216,16,22.528v9.472c0,2.816,0.576,5.488,1.472,8h-46.16L29.66,306.348c-1.896-1.896-4.592-2.712-7.264-2.176
				c-2.632,0.536-4.824,2.368-5.824,4.864l-16,40c-1.576,3.952,0.208,8.448,4.08,10.232l99.896,46.104
				c1.56,9.152,6.984,16.944,14.568,21.696l-13.448,36.936H88.004c-4.424,0-8,3.576-8,8s3.576,8,8,8h88c4.424,0,8-3.576,8-8
				s-3.576-8-8-8h-5.312l11.648-32h115.336l11.648,32h-5.32c-4.424,0-8,3.576-8,8s3.576,8,8,8h88c4.424,0,8-3.576,8-8s-3.576-8-8-8
				H374.34l-13.44-36.936c7.584-4.752,13.008-12.544,14.568-21.696l99.896-46.104C479.22,357.484,481.012,352.988,479.436,349.036z
				 M192.004,16.004h96c4.416,0,8,3.584,8,8s-3.584,8-8,8h-96c-4.416,0-8-3.584-8-8S187.588,16.004,192.004,16.004z M128.004,72.004
				c0-22.056,17.944-40,40-40h1.472c3.312,9.288,12.112,16,22.528,16h96c10.416,0,19.216-6.712,22.528-16h1.472
				c22.056,0,40,17.944,40,40v56h-16c0-13.232-10.768-24-24-24h-144c-13.232,0-24,10.768-24,24h-16V72.004z M320.004,128.004h-160
				c0-4.416,3.584-8,8-8h144C316.42,120.004,320.004,123.588,320.004,128.004z M120.004,144.004h32h176h24c4.416,0,8,3.584,8,8v16
				h-240V144.004z M83.316,168.004L58.3,142.988l8.968-13.464l36.736,12.248v26.232h-8H83.316z M88.004,280.004v-88
				c0-4.416,3.584-8,8-8h16h256h16c4.416,0,8,3.584,8,8v88c0,4.416-3.584,8-8,8h-288C91.588,288.004,88.004,284.419,88.004,280.004z
				 M104.004,387.508l-85.752-39.584l8.672-21.688l7.424,7.424c1.496,1.504,3.528,2.344,5.656,2.344v8c0,4.424,3.576,8,8,8
				s8-3.576,8-8v-8h16v16c0,4.424,3.576,8,8,8s8-3.576,8-8v-16h16V387.508z M153.668,464.004h-30.976l11.648-32h1.664h29.312
				L153.668,464.004z M136.004,416.004c-8.824,0-16-7.176-16-16v-64h80.888c-10.408,10.176-16.888,24.336-16.888,40
				s6.48,29.824,16.888,40H136.004z M240.004,416.004c-22.056,0-40-17.944-40-40c0-22.056,17.944-40,40-40c22.056,0,40,17.944,40,40
				C280.004,398.06,262.06,416.004,240.004,416.004z M326.34,464.004l-11.648-32h29.312h1.664l11.648,32H326.34z M360.004,400.004
				c0,8.824-7.176,16-16,16h-64.888c10.408-10.176,16.888-24.336,16.888-40s-6.48-29.824-16.888-40h80.888V400.004z
				 M368.004,320.004h-256c-4.416,0-8-3.584-8-8v-8h272v8C376.004,316.419,372.42,320.004,368.004,320.004z M376.004,387.508
				v-51.504h16v16c0,4.424,3.576,8,8,8s8-3.576,8-8v-16h16v8c0,4.424,3.576,8,8,8s8-3.576,8-8v-8c2.128,0,4.16-0.84,5.656-2.344
				l7.424-7.424l8.672,21.688L376.004,387.508z"/>
			<path d="M256.004,376.004h-8v-8c0-4.424-3.576-8-8-8s-8,3.576-8,8v8h-8c-4.424,0-8,3.576-8,8s3.576,8,8,8h32c4.424,0,8-3.576,8-8
				S260.428,376.004,256.004,376.004z"/>
			<path d="M160.004,368.004h-16c-4.424,0-8,3.576-8,8s3.576,8,8,8h16c4.424,0,8-3.576,8-8S164.428,368.004,160.004,368.004z"/>
			<path d="M320.004,384.004h16c4.424,0,8-3.576,8-8s-3.576-8-8-8h-16c-4.424,0-8,3.576-8,8S315.58,384.004,320.004,384.004z"/>
		</g>
	</g>
</g>
</svg>