<?xml version="1.0" encoding="iso-8859-1"?>
<!-- Uploaded to: SVG Repo, www.svgrepo.com, Generator: SVG Repo Mixer Tools -->
<svg fill="#000000" height="800px" width="800px" version="1.1" id="Layer_1" xmlns="http://www.w3.org/2000/svg" xmlns:xlink="http://www.w3.org/1999/xlink" 
	 viewBox="0 0 490.667 490.667" xml:space="preserve">
<g>
	<g>
		<path d="M362.341,178.773L319.674,8.107C318.501,3.413,314.234,0,309.327,0h-128c-4.907,0-9.173,3.307-10.347,8.107
			l-42.667,170.667c-1.387,5.76,2.027,11.52,7.787,12.907c0.853,0.213,1.707,0.32,2.56,0.32h96v277.333h-53.013
			c-5.333,0-10.133,3.84-10.88,9.067c-0.96,6.613,4.16,12.267,10.56,12.267h127.68c5.333,0,10.133-3.84,10.88-9.067
			c0.96-6.613-4.16-12.267-10.56-12.267h-53.333V192h96c5.867,0,10.667-4.8,10.667-10.667
			C362.661,180.48,362.554,179.627,362.341,178.773z M152.314,170.667l37.333-149.333h111.36l37.333,149.333H152.314z"/>
	</g>
</g>
</svg>